<?xml version="1.0" encoding="UTF-8"?>
<svg version="1.1" xmlns="http://www.w3.org/2000/svg" xmlns:xlink="http://www.w3.org/1999/xlink" x="0px" y="0px"
	 viewBox="112 0 288 288" style="enable-background:new 0 0 560 288;" xml:space="preserve">
    <g>
        <path d="M204,26.8c-2.1-6.8-0.4-19.4,15-15.2c15.4,4.2,20.1,6.8,27.8-5.5c7.7-12.2,17.5-3,19.6,0c2.1,3,7.3,8,20.9,0.4
            C301-1,313.8-4,312.1,11.2c-1.7,15.2-35.5,42.2-35.5,42.2s29.9,1.7,44.4,17.7c14.5,16,13.2,25.3,13.2,25.3s7.3-4.6,10.3-5.5
            c3-0.8,3-0.8,3-0.8s5.1,3.8,6,16.9c0.9,13.1-6,19.8-6,19.8s4.7-11.4,2.6-17.3c-2.1-5.9-5.1-8.9-5.1-8.9s-21.4,5.5-26.9,13.1
            c-5.6,7.6-7.3,16-7.3,16s-1.3-5.9-2.1-8.4c-0.9-2.5-3-4.6-3-4.6s-1.7,12.2-7.3,15.2s-14.5,4.6-14.5,4.6s13.2-6.8,15-18.6
            c1.7-11.8-1.3-17.3-4.3-22.4s-24.8-35.4-24.8-35.4s11.5,40.1,4.7,50.6c-6.8,10.5-12,10.5-12,10.5s6.4-4.6,7.3-8.9
            c0.9-4.2,1.3-6.3,1.3-6.3s-15-8-20.1-19c-5.1-11-3.4-25.3-3.4-25.3s-12.8,12.7-10.3,32.5s11.5,17.3,11.5,17.3l12.4-1.7
            c0,0-22.2,5.1-31.6,19.4s-11.3,32.1-26.4,44.7c-15.1,12.7-35.1,18.6-34.7,35s12.8,28.7,16.7,30c3.8,1.3,11.1,0,11.1,0
            s1.3,8,9.8,6.8c8.5-1.3,13.7-11,25.2-9.3c11.5,1.7,23.5,0.8,23.5,0.8s-14.1,10.1-15.4,27.8c-1.3,17.7-1.3,17.7-1.3,17.7
            s7.7-33.3,28.6-46.4c20.9-13.1,23.1-20.3,22.6-29.1c-0.4-8.9-6-10.5-6-10.5c0.9,1.8,3.3,7.2,1.8,13.9c-1,4.4-3.3,7.2-4.3,8.4
            c-4.7,5.7-10.9,7.3-12.5,7.7c-2.4,0.5-7.3,1.7-12.1-0.7c-2.7-1.3-4.6-3.4-5.2-4c-1.4-1.5-2.2-2.9-3.2-4.5c-1-1.7-2.2-4.2-3.3-7.3
            l-17.5,1.7c0,0,4.7-11.8,7.7-14.3c3-2.5,3-2.5,3-2.5s0-19.8,5.6-24.9c5.6-5.1,8.5-0.8,8.5-0.8s5.1-19,12.4-17.3
            c7.3,1.7,7.3,1.7,7.3,1.7s6.8-8.9,13.2-5.5c6.4,3.4,9.8,14.3,0.4,16.5c-9.4,2.1-19.6,6.8-26.1,11.8c-6.4,5.1-9.8,12.2-9.8,12.2
            s12-15.6,31.6-15.6s30.8,11.8,36.3,21.1c5.6,9.3,13.2,26.6,15.8,38.4c2.6,11.8,5.1,14.8,8.1,15.2s2.1-0.4,3.8-4.6
            c1.7-4.2,1.7-22.8,1.3-28.3c-0.4-5.5-3-35.9-3-35.9s14.5,43,12.8,62.9c-1.7,19.8-3,30-16.2,35c-13.2,5.1-32,8.4-82.9,10.5
            c-50.8,2.1-77.7-3.8-93.1-15.6c-15.4-11.8-10.3-34.6-6-50.6c4.3-16-2.1-108.4,19.2-134.6c21.4-26.2,47-30.8,62.8-35
            c15.8-4.2,29.9-1.7,29.9-1.7s-0.4-8.9-24.3-6.3L223,47.5C223,47.5,206.2,33.6,204,26.8z"/>
    </g>
</svg>