<?xml version="1.0" encoding="utf-8"?>
<!-- Generator: Adobe Illustrator 25.0.0, SVG Export Plug-In . SVG Version: 6.00 Build 0)  -->
<svg version="1.1" id="Layer_1" xmlns="http://www.w3.org/2000/svg" xmlns:xlink="http://www.w3.org/1999/xlink" x="0px" y="0px"
	 viewBox="0 0 460 460" style="enable-background:new 0 0 460 460;" xml:space="preserve">
<g>
	<path d="M109.5,98.4h141.3c15.4,0,27.8-12.4,27.8-27.8V28.9c0-15.4-12.4-27.8-27.8-27.8l-141.3,0c-15.3,0-27.8,12.4-27.8,27.8v41.7
		C81.7,86,94.1,98.4,109.5,98.4L109.5,98.4z"/>
	<path d="M311.1,227.9L243.2,143v-22.1l-126.2,0V143l-74.7,93.5h264.8C308.3,233.5,309.7,230.7,311.1,227.9L311.1,227.9z"/>
	<path d="M269,376.6l31.5-117.8H33.4v171.1c0,16.4,13.3,29.7,29.7,29.7h230C271,439.2,260.7,407.6,269,376.6L269,376.6z M240.9,373
		h-41.7v41.7H161V373h-41.7v-38.2H161v-41.7h38.2v41.7h41.7V373z"/>
	<path d="M401.2,206.9c-32.7-8.8-66.3,10.6-75.1,43.3l-14.8,55.3l118.5,31.7l14.8-55.2C453.3,249.3,433.9,215.7,401.2,206.9
		L401.2,206.9z"/>
	<path d="M290.7,382.4c-8.8,32.7,10.6,66.3,43.4,75.1c32.7,8.8,66.3-10.6,75.1-43.4l14.8-55.3l-118.5-31.7L290.7,382.4z"/>
</g>
</svg>
