<?xml version="1.0" encoding="utf-8"?>
<!-- Generator: Adobe Illustrator 25.0.0, SVG Export Plug-In . SVG Version: 6.00 Build 0)  -->
<svg version="1.1" id="Layer_1" xmlns="http://www.w3.org/2000/svg" xmlns:xlink="http://www.w3.org/1999/xlink" x="0px" y="0px"
	 viewBox="0 0 510 510" style="enable-background:new 0 0 510 510;" xml:space="preserve">
<g>
	<path d="M505.8,256.7c-2.4-3-7.1-3-29.6-3.1l-70.4-0.6l19.1-53.3c9.8-27.5,18.8-52.6,21.6-60.3l2.4-6.7l4.8-0.4
		c7-0.5,13.4-2.8,18.4-6.7c8.1-6.1,10-18.6,4.5-29.7c-8.7-17.5-48.6-46.5-87.8-41.5c-9.4,1.2-19.9,9.8-19,22.6
		c1.6,22,23.6,35.5,32.9,40.9c7.1,4,8.8,5.6,8.9,7.8c0.1,2.6-1,4.3-3.5,5.2c-3.2,1.2-19.5-9.1-24.5-13c-2-1.5-4.7-4-7.6-6.9
		c-2.8,4.3-94.2,143.1-94.2,143.1l-272.4,0c-4.1,0-5.8,3.5-6,3.8c-2.5,6.6,6.6,36,14,53.4c27,63.3,81.9,122.9,130.4,141.7
		c2,0.8,3.7,1.5,4.6,1.9c0.2,1.1,0.4,3.4,0.7,7.6c0.2,4.4,0.9,10.2,1.8,12.3c2.2,5.4,7,10,12.6,12.2c5,1.8,136.4,1.7,150.5,1.6
		c8.9-0.1,16-0.1,20.5-0.1c11.1,0,19.7-8,19.7-18.1c0-9.2,0.3-13.8,0.5-15.1c1.5-0.8,13-6.4,13-6.4c12.9-6.1,27.5-15.3,41.2-25.8
		c10.5-8.1,32-29.5,41-40.9c27.1-34.2,45-77.3,52.9-118.6C507.3,260.6,507,258.3,505.8,256.7L505.8,256.7z M146.6,416
		c-0.3,2.2-1.6,3.2-2.5,3.7c-0.6,0.3-1.3,0.4-2,0.4c-2.5,0-5.8-1.5-11.5-5.1c-30.8-19.5-61.2-53.5-77.4-86.5
		c-7.6-15.5-8.4-19.5-7.4-22.2c0.7-1.6,2.2-2.7,4-2.8c2-0.2,4,0.9,5,2.8c0.5,1,2,4.5,3.2,7.7c4.7,12.4,16.7,32.3,28.6,47.2
		c13.4,16.8,34.8,35.8,51.9,46.2C144,410.9,147,412.9,146.6,416L146.6,416z M26.1,180.1c0-4.4,44.4-17.1,71.9-3.5
		c13.9,6.9,22.1,16.8,28.9,30.5c-10.8-5-26.3-11.4-29.3-11.4c-2,0-3.6,1.1-4.2,2.8c-0.7,1.9,0,4,1.6,5.3c0.3,0.3,1.1,1.1,13.7,6.2
		c7.8,3.1,18.9,8.1,24.7,11.5c9.8,5.9,17.5,10.8,15.7,15.1c-0.4,1.2-1.3,2.1-2.4,2.5c-0.5,0.2-1,0.3-1.5,0.3
		c-1.8,0-11.8-6.1-15.8-8.4c-3.4-2-4.2-2.1-4.4-2.1c-2.9,1.7-15.4,4.8-23.1,5.4c-9.4,0.6-21.7-1.7-30.3-5.8
		C46.1,216,26.1,183.4,26.1,180.1L26.1,180.1z M84.1,90.8c15.2,62.5,53.9,92,61.4,98c17.9,14.3,51.6,29.3,69.3,30.9l3.7,0.4l2.6,8.3
		c1.7,5.5,3.3,10.8,3.6,12c0.8,2.6,3.2,4,5.3,4.1c1.8,0,3.3-1,3.9-2.6c0.9-2.3-1-9.7-4.1-18.8c0,0,0.1,0,0.1,0
		c-0.8-2.5-4.5-13.6-6.4-18c-1.2-2.6-3.8-8.3-6.8-14.6c-4.6-9.7-10.2-19.3-17-29.4c-17.5-26.3-25.8-36.3-42.1-51
		c-8.3-7.4-10.4-9.9-10.4-12.4c0-2.9,1.5-4.4,4.5-4.4c3.9,0,23.1,18.3,28.8,24.6c9.2,10.1,30.1,39.8,39.2,55.7
		c4,7,10.8,21.4,15.9,35.1c0.5,1.3,1.1,3,1.7,5c1.5-7,2.7-14.2,3.6-22c3.9-31.3,4.2-44.3,1.4-66.1c-1.5-11.1-1.4-14.2,0.2-16.1
		c1.9-2.2,4-2.4,6.3-0.4c3,2.6,5.5,28.9,5.8,37.5c0.3,12.2-2.4,42.2-5.4,61.3c4.5-4.6,7.9-8.7,8.7-9.7
		c16.4-22.4,27.4-62.2,27.4-90.4c0-19.5-6.2-40-13-55.1c-4.4-9.8-20.4-33.5-24.9-30.4c-2.2,1.6-12.6,16.9-15.9,22.6
		c-8.7,15-16.6,32.5-20.1,44.6l-3.4,11.4c-0.2-0.3-23.4-29.1-61-50.1c-30.5-17-66-21.2-70-21.8C71.6,27.7,76.7,60.4,84.1,90.8
		L84.1,90.8z"/>
</g>
</svg>
