<?xml version="1.0" encoding="utf-8"?>
<!-- Generator: Adobe Illustrator 25.0.0, SVG Export Plug-In . SVG Version: 6.00 Build 0)  -->
<svg version="1.1" id="Layer_1" xmlns="http://www.w3.org/2000/svg" xmlns:xlink="http://www.w3.org/1999/xlink" x="0px" y="0px"
	 viewBox="0 0 543.8 543.8" style="enable-background:new 0 0 543.8 543.8;" xml:space="preserve">
<g>
	<path d="M215.5,15.1c4.8,0,8.7,3.9,8.7,8.7v0c0,4.8-3.9,8.7-8.7,8.7c-4.8,0-8.7-3.9-8.7-8.7C206.8,19,210.7,15.1,215.5,15.1z
		 M264,71.9c-1.1,0-2.2,0.5-3,1.3c-0.8,0.8-1.3,1.9-1.3,3v5.8c0,1.1,0.5,2.2,1.3,3c0.8,0.8,1.9,1.3,3,1.3h41.3
		c2.4,0,4.3-1.9,4.3-4.3v-5.8c0-2.4-1.9-4.3-4.3-4.3L264,71.9z M278.2,96.4c-1.1,0-2.2,0.5-3,1.3c-0.8,0.8-1.3,1.9-1.3,3v5.8
		c0,1.1,0.5,2.2,1.3,3c0.8,0.8,1.9,1.3,3,1.3h27.1c2.4,0,4.3-1.9,4.3-4.3v-5.8c0-2.4-1.9-4.3-4.3-4.3L278.2,96.4z M264,121.3
		c-1.1,0-2.2,0.5-3,1.3c-0.8,0.8-1.3,1.9-1.3,3v5.8c0,1.1,0.5,2.2,1.3,3c0.8,0.8,1.9,1.3,3,1.3h41.3c2.4,0,4.3-1.9,4.3-4.3v-5.8
		c0-2.4-1.9-4.3-4.3-4.3H264z M278.2,145.7c-1.1,0-2.2,0.5-3,1.3c-0.8,0.8-1.3,1.9-1.3,3v5.8c0,1.1,0.5,2.2,1.3,3
		c0.8,0.8,1.9,1.3,3,1.3h27.1c2.4,0,4.3-1.9,4.3-4.3V150c0-2.4-1.9-4.3-4.3-4.3H278.2z M264,170.3c-1.1,0-2.2,0.5-3,1.3
		c-0.8,0.8-1.3,1.9-1.3,3v5.8c0,1.1,0.5,2.2,1.3,3c0.8,0.8,1.9,1.3,3,1.3l41.3,0c2.4,0,4.3-1.9,4.3-4.3v-5.8c0-2.4-1.9-4.3-4.3-4.3
		L264,170.3z M282.8,202.1L282.8,202.1c-13.8,0-29.6,1.8-45.5,6.4c-7.3,2.1-14.6,4.8-21.8,7.5c-7.5,2.8-14.9,5.5-22.5,7.8
		c-5.3,1.5-10.7,2.8-16.1,3.6c-5.6,0.8-11.3,1.2-17.2,1.2c-12.4,0-25.2-1.5-38.4-3.5l0,67.8c0,24,0.8,38.4,5.1,43.9
		c2.8,3.6,10.1,4.9,29.7,4.9l59.3,0l59.3,0v0c19.6,0,26.8-1.3,29.7-4.9c4.3-5.6,5.1-20,5.2-43.9v-88.5c-0.1,0-0.1,0.1-0.2,0.1
		c-4.9-0.9-10.1-1.7-15.9-2.1h0C290.1,202.3,286.5,202.1,282.8,202.1L282.8,202.1z M129.7,48L129.7,48C129.7,48,129.8,48,129.7,48
		L129.7,48h0.1c0.5,0,1.1,0,1.6,0h0l168.1,0h0h1.6h0.1c8.9,0,12.1,0.9,13.5,2.7c2.4,3.3,2.7,11.5,2.6,24.3v0.1l0,217.9v0
		c0,22.6-0.4,40.5-6.8,48.7c-5.6,7.2-17.7,7.9-35.7,7.9h0l-118.6,0c-18,0-30.1-0.7-35.7-7.9c-6.4-8.2-6.8-26.1-6.8-48.7L113.7,75V75
		c-0.1-12.8,0.2-21,2.6-24.3h0C117.6,48.8,120.9,48,129.7,48L129.7,48z M215.5,2c-12.1,0-21.8,9.8-21.8,21.8c0,3.5,0.8,6.8,2.3,9.7
		l-64.5,0c-0.5,0-1.1,0-1.7,0v0c-0.3,0-0.7,0-1,0h0c-6.9,0-18,0.2-24.1,8.6c-5.9,8.1-5.5,22.8-5.4,33l-0.1,217.8v0
		c0,19.9-0.4,44.5,9.8,57.6c10.9,14,32,13.5,47.1,13.5h0l39.3,0v22c0,3.5,1.4,6.9,3.9,9.3c2.5,2.5,5.8,3.9,9.3,3.9h1.3v17h-17.8
		c-0.9,0-1.9,0.4-2.5,1c-0.7,0.7-1,1.6-1,2.5v4.4c0,0.9,0.4,1.9,1,2.5c0.7,0.7,1.6,1.1,2.5,1l4.6,0l0,27.1v0.1
		c0,2.8-0.1,8.1,2.6,11.5c0.2,0.2,0.4,0.4,0.6,0.7c0.3,0.3,0.6,0.5,0.8,0.8c2.1,1.7,5,2.3,7.5,2.5v5.1c0,37.7,30.6,68.3,68.3,68.3
		c37.7,0,68.3-30.6,68.3-68.3l0-31.7v-52.1c0-29.7,24.1-53.9,53.9-53.9c29.7,0,53.9,24.1,53.9,53.9l0,26.1c-1.5,0-2.9,0.7-4,1.7
		c-1.1,1.1-1.7,2.6-1.7,4.2V477c0,1.6,0.6,3.1,1.7,4.2s2.6,1.7,4.2,1.7h1.2v24.3c0,1.3,0.5,2.6,1.4,3.5c0.9,0.9,2.2,1.4,3.5,1.4h1.7
		c2.7,0,4.9-2.2,4.9-4.9v-24.3h1.2c3.3,0,5.9-2.7,5.9-5.9v-53.3c0-3.2-2.5-5.8-5.7-5.9h0v-26.1c0-37.7-30.6-68.3-68.3-68.3
		c-37.7,0-68.3,30.6-68.3,68.3v83.8c0,29.7-24.1,53.9-53.9,53.9s-53.9-24.1-53.9-53.9v-5.1c2.5-0.2,5.5-0.8,7.7-2.5
		c0.3-0.2,0.6-0.5,0.8-0.8c0.2-0.2,0.4-0.4,0.6-0.7c2.6-3.4,2.5-8.7,2.6-11.5v-0.1l0-27.1h4.6c2,0,3.6-1.6,3.6-3.6v-4.4
		c0-2-1.6-3.6-3.6-3.6h-17.8v-17h1.3c7.3,0,13.2-5.9,13.2-13.2v-22l39.1,0h0h0.9c0.6,0,1.2,0,1.9,0c14.8,0,34.1-0.3,44.4-13.5
		c10.2-13.1,9.8-37.7,9.8-57.6v0l0-217.9c0.1-10.1,0.6-24.8-5.4-32.9c-6.2-8.5-17.4-8.7-24.3-8.7c-0.3,0-0.6,0-0.9,0v0
		c-0.6,0-1.2,0-1.7,0h0l-64.4,0h0c1.4-2.9,2.3-6.2,2.3-9.7C237.4,11.8,227.6,2,215.5,2L215.5,2z"/>
</g>
</svg>
