<?xml version="1.0" encoding="utf-8"?>
<!-- Generator: Adobe Illustrator 25.0.0, SVG Export Plug-In . SVG Version: 6.00 Build 0)  -->
<svg version="1.1" id="Layer_1" xmlns="http://www.w3.org/2000/svg" xmlns:xlink="http://www.w3.org/1999/xlink" x="0px" y="0px"
	 viewBox="0 0 509.7 509.7" style="enable-background:new 0 0 509.7 509.7;" xml:space="preserve">
<g>
	<path d="M207.9,332.1c7.1,11,17.6,19.4,29.9,23.9l-18.9-35.7c-2-3.7-0.5-8.4,3.2-10.3c3.7-2,8.4-0.5,10.3,3.2l21.6,40.8h0
		c3.9-14.8,1.3-30.6-7-43.5c-9.6-15.1-26-25.2-44.4-27.4C196.5,299.2,198.4,317.5,207.9,332.1L207.9,332.1z"/>
	<path d="M285.2,299.8c3.6-2.3,8.3-1.2,10.6,2.4c2.3,3.6,1.2,8.3-2.4,10.6c-0.1,0.1-17.3,11.5-22.4,37.3c-0.2,0.9-0.5,1.7-1,2.5
		c-0.3,1.5-0.6,3-1,4.4c13.5-4.2,25.1-13,32.8-24.9c9.4-14.6,11.3-32.9,5.1-49.1c-17.4,2-33.2,11.4-43.3,25.8
		c1.5,3.1,2.8,6.2,3.9,9.5C275.7,305.9,284.6,300.2,285.2,299.8L285.2,299.8z"/>
	<path d="M190.2,76.6h129.3V104H190.2V76.6z"/>
	<path d="M168.7,0H341c3.6,0,6.6,3.6,6.6,6.6v48.2c0,3.6-2.9,6.6-6.6,6.6H168.7c-3.6,0-6.6-3.6-6.6-6.6V6.6
		C162.1,2.9,165.1,0,168.7,0z"/>
	<path d="M181.8,439.7h146.1c5.3,0,9.7-4.3,9.7-9.7V214.5c0-5.3-4.3-9.7-9.7-9.7H181.8c-5.3,0-9.7,4.3-9.7,9.7V430
		C172.2,435.3,176.5,439.7,181.8,439.7z M190.9,271.6L190.9,271.6c0-0.1,0-0.2,0-0.2c0-0.1,0.1-0.1,0.1-0.2c0.1-0.2,0.2-0.3,0.2-0.4
		c0.1-0.1,0.1-0.2,0.2-0.3l0.2-0.3l0.2-0.3l0.2-0.2l0.3-0.3l0.2-0.2l0.3-0.3l0.2-0.2l0.3-0.2l0.3-0.2l0.3-0.2l0.4-0.2l0.3-0.1
		l0.4-0.2l0.3-0.1l0.4-0.1l0.3-0.1l0.4-0.1l0.4-0.1h0.8l0.7,0c21.9,0.9,42.5,11,56.5,27.9c14-16.9,34.6-27,56.5-27.9h0.1
		c1.7-0.1,3.4,0.4,4.8,1.4l0.4,0.4l0.2,0.1l0.3,0.3l0.2,0.2h0c0.1,0.1,0.2,0.2,0.2,0.3c0.1,0.1,0.2,0.2,0.3,0.3l0.2,0.3
		c0.1,0.1,0.2,0.2,0.2,0.3c0.1,0.1,0.1,0.2,0.2,0.4c0.1,0.1,0.1,0.2,0.1,0.3v0.1c10.8,22,9.3,48.2-4,68.8
		c-12.3,18.9-32.2,31.4-54.6,34.3H260c-0.3,0.1-0.6,0.2-0.9,0.3H259l-0.8,0.2h-0.2c-0.3,0-0.6,0-0.9,0h-0.4l-1.9-0.1l-1.9,0.1h-0.4
		c-1.1,0-2.1-0.2-3.1-0.7c-22.3-2.9-42.3-15.4-54.6-34.3C181.7,319.6,180.2,293.6,190.9,271.6L190.9,271.6z"/>
	<path d="M106.7,506.4c0,1.8,1.5,3.3,3.3,3.3h289.8c1.8,0,3.3-1.5,3.3-3.3v-322c0-17.3-6.9-33.8-19.1-46
		c-12.2-12.2-28.7-19.1-46-19.1H171.8c-17.3,0-33.8,6.9-46,19.1c-12.2,12.2-19.1,28.7-19.1,46L106.7,506.4z M156.8,214.6
		c0-6.6,2.6-13,7.3-17.7c4.7-4.7,11-7.3,17.6-7.3h146.1c6.6,0,13,2.6,17.6,7.3c4.7,4.7,7.3,11,7.3,17.7V430c0,6.6-2.6,13-7.3,17.6
		c-4.7,4.7-11,7.3-17.6,7.3H181.8c-6.6,0-13-2.6-17.7-7.3c-4.7-4.7-7.3-11-7.3-17.6L156.8,214.6z"/>
</g>
</svg>
