<?xml version="1.0" encoding="utf-8"?>
<!-- Generator: Adobe Illustrator 25.0.0, SVG Export Plug-In . SVG Version: 6.00 Build 0)  -->
<svg version="1.1" id="Layer_1" xmlns="http://www.w3.org/2000/svg" xmlns:xlink="http://www.w3.org/1999/xlink" x="0px" y="0px"
	 viewBox="0 0 565 565" style="enable-background:new 0 0 565 565;" xml:space="preserve">
<g>
	<path d="M472.8,141.5c5.1-5.1,8.2-11.8,8.7-19c0.5-7.2-1.5-14.3-5.8-20.1l84.9-84.9c1.6-1.5,2.6-3.6,2.6-5.9c0-2.2-0.8-4.4-2.4-5.9
		s-3.7-2.4-5.9-2.4c-2.2,0-4.3,1-5.9,2.6l-84.9,84.9c-5.8-4.3-12.9-6.3-20.1-5.8c-7.2,0.5-13.9,3.6-19,8.7l-3.3,3.3l47.8,47.8
		L472.8,141.5z"/>
	<path d="M111.2,416.6l-40.1,40.1l-21.3-21.3c-6.9-6.9-17-9.6-26.5-7.1c-9.4,2.5-16.8,9.9-19.4,19.4c-2.5,9.4,0.2,19.5,7.1,26.5
		l81.4,81.4c6.9,6.9,17,9.6,26.5,7.1c9.4-2.5,16.8-9.9,19.4-19.4c2.5-9.5-0.2-19.5-7.1-26.5l-21.3-21.3l40.1-40.1L111.2,416.6z"/>
	<path d="M242.9,221.6l15.5-15.5l102,102l-15.5,15.5L242.9,221.6z"/>
	<path d="M141.4,323l89.8-89.8l31.6,31.6l-89.8,89.8L141.4,323z"/>
	<path d="M211.8,393.4l89.8-89.8l31.6,31.6l-89.8,89.8L211.8,393.4z"/>
	<path d="M184.7,366.3l89.8-89.8L290,292l-89.8,89.8L184.7,366.3z"/>
	<path d="M461.1,207.4c6.3-6.3,9.9-14.9,9.9-23.9c0-9-3.6-17.5-9.9-23.9l-54.2-54.3c-6.3-6.3-14.9-9.9-23.9-9.9
		c-9,0-17.6,3.6-23.9,9.9L270,194.5l102,102L461.1,207.4z"/>
	<path d="M122.1,326.9c-6.9-6.9-17-9.6-26.5-7.1c-9.4,2.5-16.8,9.9-19.4,19.4c-2.5,9.4,0.2,19.5,7.1,26.4l117.5,117.5
		c6.9,6.9,17,9.6,26.4,7.1c9.4-2.5,16.8-9.9,19.4-19.4c2.5-9.4-0.2-19.5-7.1-26.5L122.1,326.9z"/>
	<path d="M440,398.2c2.4,0,8.8-9.6,8.8-17.3c0-4.9-3.9-8.8-8.8-8.8s-8.8,3.9-8.8,8.8C431.1,388.6,437.5,398.2,440,398.2z"/>
	<path d="M389.2,408.7v-2.3c0.1-2.4-0.8-4.7-2.5-6.4c-1.7-1.7-3.9-2.7-6.3-2.7c-2.4,0-4.7,1-6.3,2.7c-1.7,1.7-2.6,4-2.5,6.4
		c0,4.6,11.1,16,16.4,17.2C389.3,420.5,389.2,412.1,389.2,408.7L389.2,408.7z"/>
	<path d="M480.8,465.3L440,441.4l-40.8,23.9c-6.5,3.8-10.5,10.8-10.5,18.4v4c0,5.6,2.3,11.1,6.3,15c4,4,9.4,6.2,15.1,6.2
		c5.6,0,11-2.3,15-6.3l9.2-9.3c1.5-1.6,3.7-2.4,5.9-2.4s4.3,0.9,5.9,2.4l9.2,9.3c4,4,9.4,6.3,15,6.3c5.6,0,11.1-2.2,15.1-6.2
		c4-4,6.2-9.4,6.2-15v-4C491.3,476.1,487.3,469.1,480.8,465.3L480.8,465.3z"/>
	<path d="M440,317.4c-32.6,0-63.9,13-87,36c-23.1,23.1-36,54.4-36,87s13,63.9,36,87c23.1,23.1,54.4,36,87,36s63.9-13,87-36
		c23.1-23.1,36-54.4,36-87c0-32.6-13-63.9-36.1-87C503.8,330.4,472.6,317.4,440,317.4L440,317.4z M440,355.7
		c6.7,0,13.1,2.7,17.8,7.4c4.7,4.7,7.4,11.1,7.4,17.8c0,13.4-10.1,33.7-25.2,33.7s-25.2-20.3-25.2-33.7c0-6.7,2.7-13.1,7.4-17.8
		C426.9,358.4,433.3,355.7,440,355.7L440,355.7z M355.2,406.4c-0.1-6.8,2.5-13.3,7.2-18.2c4.7-4.8,11.2-7.6,18-7.6
		c6.8,0,13.3,2.7,18,7.6c4.7,4.8,7.3,11.4,7.2,18.2v2.2c0.1,9.2,0.1,20.8-6.3,27.2c-2.7,2.8-6.5,4.3-10.4,4.3
		C375,440.2,355.2,420.3,355.2,406.4L355.2,406.4z M507.7,487.6c0,10-4,19.6-11.1,26.7c-7.1,7.1-16.7,11-26.7,10.9
		c-10-0.1-19.6-4.1-26.6-11.2l-3.3-3.4l-3.3,3.4c-7,7.1-16.6,11.2-26.6,11.2c-10,0.1-19.6-3.9-26.7-10.9
		c-7.1-7.1-11.1-16.7-11.1-26.7v-3.9c0-13.4,7.1-25.7,18.6-32.5l45-26.2c2.6-1.5,5.7-1.5,8.3,0l45,26.2h0
		c11.5,6.8,18.6,19.1,18.6,32.5L507.7,487.6z M491,440.2L491,440.2c-3.9,0.1-7.7-1.5-10.4-4.3c-6.4-6.5-6.4-18-6.3-27.2v-2.2
		c-0.1-6.8,2.5-13.3,7.2-18.2c4.7-4.8,11.2-7.6,18-7.6s13.3,2.7,18,7.6c4.7,4.8,7.3,11.4,7.2,18.2
		C524.7,420.3,504.9,440.2,491,440.2L491,440.2z"/>
	<path d="M499.5,397.6c-4.9,0-8.8,4-8.8,8.8v2.3c0,3.4-0.1,11.8,1.2,14.9c5.3-1.2,16.4-12.6,16.4-17.2v0
		C508.3,401.6,504.4,397.6,499.5,397.6L499.5,397.6z"/>
</g>
</svg>
