<?xml version="1.0" encoding="utf-8"?>
<!-- Generator: Adobe Illustrator 25.0.0, SVG Export Plug-In . SVG Version: 6.00 Build 0)  -->
<svg version="1.1" id="Layer_1" xmlns="http://www.w3.org/2000/svg" xmlns:xlink="http://www.w3.org/1999/xlink" x="0px" y="0px"
	 viewBox="0 0 491 491" style="enable-background:new 0 0 491 491;" xml:space="preserve">
<g>
	<path d="M271.7,438.5c0,9.7-7.8,17.5-17.5,17.5s-17.5-7.8-17.5-17.5s7.8-17.5,17.5-17.5S271.7,428.8,271.7,438.5"/>
	<path d="M140.5,393.6v89.8c0,4.2,3.4,7.6,7.6,7.6h212.3c4.2,0,7.6-3.4,7.6-7.6v-89.8c0-4.2-3.4-7.6-7.6-7.6H148.1
		C143.9,386,140.5,389.4,140.5,393.6z M254.2,403.5c9.3,0,18.2,3.7,24.8,10.2c6.6,6.6,10.2,15.5,10.2,24.8s-3.7,18.2-10.2,24.8
		c-6.6,6.6-15.5,10.2-24.8,10.2s-18.2-3.7-24.8-10.2c-6.6-6.6-10.2-15.5-10.2-24.8c0-9.3,3.7-18.2,10.3-24.7
		C236.1,407.2,245,403.5,254.2,403.5z"/>
	<path d="M438,482.2V456h-52.5v27.4c0,2.6-0.4,5.2-1.2,7.6h44.9C434.1,491,438,487.1,438,482.2L438,482.2z"/>
	<path d="M166.7,351h175v17.5h-175V351z"/>
	<path d="M420.5,254.7c0,4.8-11.8,8.7-26.2,8.7s-26.2-3.9-26.2-8.7c0-4.8,11.8-8.8,26.2-8.8C408.7,246,420.5,249.9,420.5,254.7"/>
	<path d="M18,236.7l32.9,246.7c0.6,4.3,4.3,7.6,8.7,7.6h64.6c-0.8-2.5-1.2-5-1.2-7.6v-89.8c0-6.7,2.7-13,7.4-17.8
		c4.7-4.7,11.1-7.4,17.8-7.4h1.1v-26.2c0-4.8,3.9-8.8,8.8-8.8c22.5,0,34.7-10.3,48.8-22.2c4-3.4,8.2-6.9,12.7-10.3l8.6-64.3
		c-0.2-25.4-10.4-49.7-28.4-67.7c-18-17.9-42.4-28-67.8-28h-17.5c-25.4,0-49.8,10.1-67.8,28C28.4,186.9,18.2,211.3,18,236.7
		L18,236.7z M61.7,211c0-4.8,3.9-8.8,8.8-8.8h105c2.3,0,4.5,0.9,6.2,2.6s2.6,3.9,2.6,6.2v52.5c0,2.3-0.9,4.5-2.6,6.2
		s-3.9,2.6-6.2,2.6h-105c-4.8,0-8.8-3.9-8.8-8.8V211z"/>
	<path d="M80.8,123.5h84.3l-5.8-35H86.7L80.8,123.5z"/>
	<path d="M210.5,1.6L94.4,9.3l-3.1,9.2h119.1L210.5,1.6z"/>
	<path d="M274.9,308.1c-1.9-2.8-3.2-5.9-3.7-9.3c-25.4,2.2-38.9,13.7-53.2,25.8c-3.5,3-7.1,6-10.8,8.8h131.6
		c-0.1-0.2-0.2-0.4-0.3-0.6c-3.2-5.6-7.7-8.2-14.2-8.2C298.9,324.7,282.3,319.2,274.9,308.1L274.9,308.1z"/>
	<path d="M315.5,158.5H473V176H315.5V158.5z"/>
	<path d="M316.7,193.5L332,308.1c9.5,2,17.6,8.2,22.1,16.9c2.7,5.1,4.5,10.7,5.1,16.4v0c0,0.1,0,0.1,0,0.2c0,0.2,0,0.5,0,0.7v26.2
		h1.1v0c6.7,0,13,2.7,17.8,7.4c4.7,4.7,7.4,11.1,7.4,17.8v44.9h53.6l32.7-245L316.7,193.5z M394.2,281c-24.9,0-43.8-11.3-43.8-26.2
		c0-15,18.8-26.2,43.8-26.2s43.8,11.3,43.8,26.2C438,269.7,419.2,281,394.2,281z"/>
	<path d="M79.2,219.7h87.5v35H79.2V219.7z"/>
	<path d="M105.5,36h35v35h-35V36z"/>
</g>
</svg>
