<?xml version="1.0" encoding="utf-8"?>
<svg version="1.1" id="Layer_1" xmlns="http://www.w3.org/2000/svg" xmlns:xlink="http://www.w3.org/1999/xlink" x="0px" y="0px"
        viewBox="108 0 290 290" style="enable-background:new 108 0 290 290;" xml:space="preserve">
<style type="text/css">
    .st0{fill:none;stroke:#1D1E1B;stroke-width:5;stroke-miterlimit:10;}
    .st1{fill:#1D1E1B;}
</style>
<g>
    <path d="M275.5,25.5c0-14-11.3-25.5-25.1-25.5H135.1c-13.8,0-25.1,11.5-25.1,25.5v205.3c0,14,11.3,25.5,25.1,25.5h85.5v-37.2
        l-14.8-8.7c-4.2-2.4-5.5-7.9-3.2-12.1l1.4-2.4c2.3-4.3,7.8-5.6,11.9-3.3l4.7,2.7v-19.6c0-4,1.6-7.7,4.2-10.4l-18.9-11.1
        c-4.2-2.4-5.5-7.9-3.2-12.1l1.4-2.4c2.3-4.3,7.8-5.6,11.9-3.3l33.5,19.6c1.9,1.1,3.2,2.7,3.8,4.6h22.3V25.5z M180.5,224.4l-1.4,2.4
        c-2.3,4.3-7.8,5.8-11.9,3.3l-33.5-19.6c-4.2-2.4-5.5-7.9-3.2-12.1l1.4-2.4c2.3-4.3,7.8-5.6,11.9-3.3l33.5,19.6
        C181.5,214.7,182.9,220.2,180.5,224.4z M180.5,168.3l-1.4,2.4c-2.3,4.3-7.8,5.6-11.9,3.3l-33.5-19.6c-4.2-2.4-5.5-7.9-3.2-12.1
        l1.4-2.4c2.3-4.3,7.8-5.6,11.9-3.3l33.5,19.6C181.5,158.5,182.9,164,180.5,168.3z M180.5,109.1l-1.4,2.4c-2.3,4.3-7.8,5.6-11.9,3.3
        l-33.5-19.6c-4.2-2.4-5.5-7.9-3.2-12.1l1.4-2.4c2.3-4.3,7.8-5.6,11.9-3.3L177.3,97C181.5,99.3,182.9,104.8,180.5,109.1z
            M180.5,55.2l-1.4,2.4c-2.3,4.1-7.8,5.6-11.9,3.1L133.7,41c-4.2-2.4-5.5-7.9-3.2-12.1l1.4-2.4c2.3-4.3,7.8-5.6,11.9-3.3L177.3,43
        C181.5,45.4,182.9,50.9,180.5,55.2z M252.6,109l-1.4,2.4c-2.5,4.3-7.8,5.8-11.9,3.3L205.8,95c-4.2-2.4-5.5-7.9-3.2-12.1l1.4-2.4
        c2.3-4.3,7.8-5.6,11.9-3.3l33.5,19.6C253.6,99.2,254.9,104.7,252.6,109z M252.6,55l-1.4,2.4c-2.5,4.3-7.8,5.6-11.9,3.3L205.8,41
        c-4.2-2.4-5.5-7.9-3.2-12.1l1.4-2.4c2.3-4.3,7.8-5.6,11.9-3.3l33.5,19.6C253.6,45.3,254.9,50.8,252.6,55z"/>
</g>
<g id="Layer_5">
    <path class="st0" d="M378.7,288H235.3c-8.1,0-14.8-6.8-14.8-15v-96.8c0-8.3,6.7-15,14.8-15h143.4c8.1,0,14.8,6.8,14.8,15V273
        C393.5,281.2,386.8,288,378.7,288z"/>
</g>
<g id="Layer_4">
    <ellipse class="st1" cx="248" cy="196" rx="12.1" ry="19.5"/>
    <ellipse class="st1" cx="286.5" cy="196" rx="12.1" ry="19.5"/>
    <ellipse class="st1" cx="325.8" cy="196" rx="12.1" ry="19.5"/>
    <ellipse class="st1" cx="364.4" cy="196" rx="12.1" ry="19.5"/>
    <ellipse class="st1" cx="248" cy="255.2" rx="12.1" ry="19.5"/>
    <ellipse class="st1" cx="286.5" cy="255.2" rx="12.1" ry="19.5"/>
    <ellipse class="st1" cx="325.8" cy="255.2" rx="12.1" ry="19.5"/>
    <ellipse class="st1" cx="364.4" cy="255.2" rx="12.1" ry="19.5"/>
</g>
</svg>
