<?xml version="1.0" encoding="utf-8"?>
<!-- Generator: Adobe Illustrator 25.0.0, SVG Export Plug-In . SVG Version: 6.00 Build 0)  -->
<svg version="1.1" id="Layer_1" xmlns="http://www.w3.org/2000/svg" xmlns:xlink="http://www.w3.org/1999/xlink" x="0px" y="0px"
	 viewBox="0 0 270 288" style="enable-background:new 0 0 270 288;" xml:space="preserve">
<style type="text/css">
	.st0{stroke:#000000;stroke-width:5;stroke-linecap:round;stroke-linejoin:round;stroke-miterlimit:10;}
	.st1{display:none;}
</style>
<g id="Layer_2_1_">
	<g>
		<rect x="34.2" y="14.7" class="st0" width="136.9" height="29.1"/>
		<g>
			<polygon class="st0" points="171,54.4 34.2,54.4 34.2,113.4 171,60.2 			"/>
			<g>
				<polygon class="st0" points="171,72.3 34.2,125.5 34.2,141.7 171,119.1 				"/>
			</g>
		</g>
	</g>
	<g>
		<path class="st0" d="M34.2,152.9v44.4c0,0,0,0,0.1,0c0,4.8,0.6,9.5,1.8,14l120.7-78.6L34.2,152.9z"/>
		<g>
			<path class="st0" d="M173.4,133.5l-134,87.3c6.4,13.7,18.3,24.6,33.6,29.3l135.6-108.9C200.1,139.3,180.3,134.9,173.4,133.5z"/>
			<g>
				<polygon class="st0" points="86.3,253.3 161.5,270.9 161.5,193 				"/>
			</g>
		</g>
	</g>
	<g>
		<path class="st0" d="M171,242.3v30.8l10.4,2.4c29.4,6.9,59.1-11.6,65.9-41l6.2-26.5c2.3-9.7,1.8-19.5-1-28.5L171,242.3z"/>
		<path class="st0" d="M221.3,144.9L171,185.3v43.8l77.4-59.5C242.6,158.7,233.2,149.9,221.3,144.9z"/>
	</g>
</g>
<g id="Layer_1_1_" class="st1">
</g>
</svg>
