<?xml version="1.0" encoding="utf-8"?>
<!-- Generator: Adobe Illustrator 25.0.0, SVG Export Plug-In . SVG Version: 6.00 Build 0)  -->
<svg version="1.1" id="Layer_1" xmlns="http://www.w3.org/2000/svg" xmlns:xlink="http://www.w3.org/1999/xlink" x="0px" y="0px"
	 viewBox="0 0 123 132.9" style="enable-background:new 0 0 123 132.9;" xml:space="preserve">
<style type="text/css">
	.st0{fill-rule:evenodd;clip-rule:evenodd;}
</style>
<g>
	<path class="st0" d="M41.7,5.4c9.4,0,17,11.7,17,26.1s-7.6,26.1-17,26.1s-17-11.7-17-26.1C24.7,17.1,32.3,5.4,41.7,5.4L41.7,5.4
		L41.7,5.4z M60,81.2h6.6c1.2,0,2.2,1,2.2,2.2v7.7h7.7c1.2,0,2.2,1,2.2,2.2v6.6c0,1.2-1,2.2-2.2,2.2h-7.7v7.7c0,1.2-1,2.2-2.2,2.2
		H60c-1.2,0-2.2-1-2.2-2.2v-7.7h-7.7c-1.2,0-2.2-1-2.2-2.2v-6.6c0-1.2,1-2.2,2.2-2.2h7.7v-7.7C57.8,82.2,58.8,81.2,60,81.2L60,81.2
		L60,81.2z M63.4,68.5c19.9,0,22.4,13.2,39.2,35.9c8.4,16.4-2.5,26.8-21.2,22.4c-8.5-4.3-14.4-5.8-20.4-5.6c-10.3,0.4-13,7.2-25,6.7
		c-9.3-0.2-13.5-4.1-14.3-10.1c-0.9-6.3,1.6-10.3,4.5-15.5C37.8,82,49.7,66,63.4,68.5L63.4,68.5L63.4,68.5L63.4,68.5z M8.8,44.1
		c-7,2.8-9.3,13.8-5,24.5s13.4,17.2,20.4,14.5s9.3-13.8,5-24.5S15.8,41.3,8.8,44.1L8.8,44.1L8.8,44.1z M114.2,44.1
		c7,2.8,9.3,13.8,5,24.5c-4.3,10.8-13.4,17.2-20.4,14.5c-7-2.8-9.3-13.8-5-24.5S107.2,41.3,114.2,44.1L114.2,44.1L114.2,44.1z M81,5
		c9.4,0,17,11.7,17,26.1s-7.6,26.1-17,26.1S64,45.5,64,31.1C64,16.7,71.6,5,81,5L81,5L81,5z"/>
</g>
</svg>
