<?xml version="1.0" encoding="utf-8"?>
<!-- Generator: Adobe Illustrator 25.0.0, SVG Export Plug-In . SVG Version: 6.00 Build 0)  -->
<svg version="1.1" xmlns="http://www.w3.org/2000/svg" xmlns:xlink="http://www.w3.org/1999/xlink" x="0px" y="0px"
	 viewBox="0 0 288 288" style="enable-background:new 0 0 288 288;" xml:space="preserve">
<style type="text/css">
    * {
        fill: white;
    }
</style>
<g id="Layer_2">
	<g>
		<path d="M225.1,29.3h-19.8v14.1h19.8c6.6,0,12,5.4,12,12v205.8c0,6.6-5.4,12-12,12H61.2c-6.6,0-12-5.4-12-12V55.4
			c0-6.6,5.4-12,12-12h21.5V29.3H61.2C46.8,29.3,35,41,35,55.4v205.8c0,14.4,11.7,26.1,26.2,26.1h163.9c14.4,0,26.2-11.7,26.2-26.1
			V55.4C251.3,41,239.5,29.3,225.1,29.3z"/>
	</g>
	<g>
		<path d="M188.8,24.6h-20.3c-0.3-13.1-11.1-23.6-24.2-23.6c-13.2,0-23.9,10.5-24.2,23.6H97.9c-2.7,0-4.9,2.2-4.9,4.8v23.4
			c0,2.7,2.2,4.8,4.9,4.8h90.9c2.7,0,4.9-2.2,4.9-4.8V29.5C193.7,26.8,191.5,24.6,188.8,24.6z M144.3,15.2c5.6,0,10.1,4.5,10.1,10.1
			s-4.5,10.1-10.1,10.1s-10.1-4.5-10.1-10.1S138.7,15.2,144.3,15.2z"/>
	</g>
	<path d="M209.6,182h-69.2c-1.6,0-2.8-1.3-2.8-2.8v-4.2c0-1.6,1.3-2.8,2.8-2.8h69.2c1.6,0,2.8,1.3,2.8,2.8v4.2
		C212.4,180.7,211.1,182,209.6,182z"/>
	<path d="M211.1,213.3h-53.9c-1.6,0-2.8-1.3-2.8-2.8v-4.2c0-1.6,1.3-2.8,2.8-2.8h53.9c1.6,0,2.8,1.3,2.8,2.8v4.2
		C213.9,212,212.7,213.3,211.1,213.3z"/>
	<path d="M211.1,244.6H75c-1.6,0-2.8-1.3-2.8-2.8v-4.2c0-1.6,1.3-2.8,2.8-2.8h136.1c1.6,0,2.8,1.3,2.8,2.8v4.2
		C213.9,243.3,212.7,244.6,211.1,244.6z"/>
	<path d="M98.6,161.8c-14.8,0-26.7,12-26.7,26.7c0,14.8,12,26.7,26.7,26.7c14.8,0,26.7-12,26.7-26.7
		C125.3,173.7,113.3,161.8,98.6,161.8z M113.5,182.9c0,0-2,1.9-5.8,5.3c-2.4,2.2-7.6,10.2-10.3,14.7c-0.7,1.2-2,2-3.4,2.1
		c-0.1,0-0.2,0-0.3,0c-1.3,0-2.5-0.6-3.4-1.6c-0.3-0.4-2.7-3.5-4.1-6.4c-0.5-1.2-3.6-4.8-6-7.4c-1.6-1.7-1.5-4.4,0.2-6
		c1.7-1.6,4.4-1.5,6,0.2c1.3,1.4,5.6,6.1,7.3,9.1c2.5-3.9,5.9-8.7,8.2-10.8c3.7-3.4,5.8-5.3,5.8-5.3c1.7-1.6,4.4-1.5,6,0.3
		C115.3,178.6,115.2,181.3,113.5,182.9z"/>
</g>
<g id="Layer_3">
	<g>
		<path d="M87.8,114.4L87.8,114.4c-2.7,2.7-4.4,6.5-4.4,10.6c0,8.2,6.7,14.9,14.9,14.9c4.1,0,7.9-1.7,10.6-4.4v0l16.7-16.7
			l-21.1-21.1L87.8,114.4z"/>
		<g>
			<path d="M133.7,78.7c6,0,10.9,4.9,10.9,10.9c0,2.9-1.1,5.7-3.2,7.8l-1.2,1.2v0l-13,13l-15.4-15.4l8.2-8.2l4.8-4.8h0l1.2-1.2
				C128,79.8,130.7,78.7,133.7,78.7 M133.7,74.7c-4.1,0-7.9,1.7-10.6,4.4h0l-5.9,5.9l-11.1,11l21.1,21.1l17-17v0
				c2.7-2.7,4.4-6.4,4.4-10.6C148.6,81.4,141.9,74.7,133.7,74.7L133.7,74.7z"/>
		</g>
	</g>
	<g>
		<path d="M145.2,107.4L145.2,107.4c-3.8,0-7.7,1.4-10.6,4.3c-5.9,5.8-5.9,15.2-0.1,21.1c2.9,2.9,6.8,4.4,10.6,4.4l0,0l23.6,0.1
			l0.1-29.8L145.2,107.4z"/>
		<g>
			<path d="M175.1,111.5l11.6,0l6.8,0l0,0l1.7,0c2.9,0,5.7,1.1,7.7,3.2c2.1,2.1,3.2,4.8,3.2,7.7c0,2.9-1.2,5.7-3.2,7.7
				c-2.1,2-4.8,3.2-7.7,3.2l-0.1,0l-1.7,0l0,0l-18.4-0.1L175.1,111.5 M171.1,107.5l-0.1,29.8l24,0.1l0,0c0,0,0.1,0,0.1,0
				c3.8,0,7.6-1.4,10.5-4.3c5.9-5.8,5.9-15.2,0.1-21.1c-2.9-2.9-6.8-4.4-10.6-4.4c0,0,0,0,0,0l0,0l-8.4,0L171.1,107.5L171.1,107.5z"
				/>
		</g>
	</g>
</g>
</svg>
