<?xml version="1.0" encoding="utf-8"?>
<!-- Generator: Adobe Illustrator 25.0.0, SVG Export Plug-In . SVG Version: 6.00 Build 0)  -->
<svg version="1.1" xmlns="http://www.w3.org/2000/svg" xmlns:xlink="http://www.w3.org/1999/xlink" x="0px" y="0px"
	 viewBox="0 0 288 288" style="enable-background:new 0 0 288 288;" xml:space="preserve">
<style type="text/css">
    * { 
        fill: white;
    }
</style>
<g id="Layer_3">
	<g>
		<path d="M19.2,207.9L19.2,207.9c-7.9,7.9-12.9,18.8-12.8,30.9c0,24,19.5,43.5,43.5,43.4c12.1,0,23-4.9,30.9-12.9l0,0l48.7-48.8
			l-61.6-61.4L19.2,207.9z"/>
		<g>
			<path d="M152.8,92.1v4c21.8,0,39.5,17.7,39.5,39.4c0,10.6-4.1,20.6-11.7,28l-1.2,1.2l0,0L134,210.4l-55.9-55.8l29.4-29.4
				l16.1-16.1h0l1.2-1.2c7.5-7.5,17.4-11.7,28-11.7L152.8,92.1 M152.8,92.1C152.8,92.1,152.8,92.1,152.8,92.1
				c-12.1,0-23,4.9-30.9,12.9h0l-17.3,17.3l-32.2,32.2l61.6,61.4l49.5-49.6l0,0c7.9-7.9,12.9-18.8,12.9-30.9
				C196.3,111.6,176.8,92.1,152.8,92.1L152.8,92.1z"/>
		</g>
	</g>
	<path d="M278,140.7C278,140.6,278,140.6,278,140.7c0-1.5-0.1-2.9-0.2-4.3c0,0,0-0.1,0-0.1c-0.1-1-0.1-2.1-0.2-3.1
		c0-0.6-0.1-1.1-0.1-1.7c-0.1-0.6-0.1-1.3-0.2-1.9c-0.2-1.5-0.3-3.1-0.5-4.6c0,0,0-0.1-0.1-0.1c-0.3-0.9-0.9-1.7-1.6-2.4
		c-1.4-1.4-3.3-2.1-5.1-2.1c-6.9-0.5-13.6-3.4-18.8-8.7c-2.1-2.1-3.7-4.4-5.1-6.9c-5.7-10.6-4.5-23.8,3.7-33.2l0,0
		c2.3-2.4,2.6-5.9,1-8.7c0,0,0,0-0.1-0.1c-1.6-2.1-3.3-4.2-5.1-6.2c-0.2-0.3-0.5-0.5-0.7-0.8c-0.8-0.9-1.6-1.8-2.4-2.7
		c-0.2-0.2-0.4-0.5-0.6-0.7c-2.6-2.8-5.4-5.5-8.3-8.1c-0.3-0.3-0.6-0.5-0.8-0.8c-0.9-0.8-1.7-1.5-2.6-2.2c-0.4-0.3-0.7-0.6-1.1-0.9
		c-0.9-0.7-1.8-1.4-2.7-2.2c-0.8-0.7-1.7-1.3-2.6-1.9c-0.4-0.2-0.8-0.3-1.2-0.5c-0.1,0-0.2-0.1-0.2-0.1c-0.1,0-0.1,0-0.2,0
		c-0.5-0.1-0.9-0.2-1.4-0.2c-2,0-3.8,0.8-5.1,2.2c-5.2,4.5-11.9,7.3-19.4,7.3c-15.5,0-28.2-12-29.4-27.2l0,0
		c-0.1-3.2-2.3-5.9-5.2-6.8c-1-0.1-2-0.2-3-0.4c-0.3,0-0.6-0.1-0.9-0.1c-0.2,0-0.5,0-0.7-0.1c-0.3,0-0.6,0-0.9-0.1
		c-0.8-0.1-1.6-0.1-2.5-0.2c-0.3,0-0.6,0-0.9-0.1c0,0-0.1,0-0.1,0c-1.1-0.1-2.2-0.1-3.2-0.2c-0.2,0-0.4,0-0.6,0
		c-2.3-0.1-4.7-0.1-7-0.1c-0.7,0-1.5,0-2.2,0.1c-1,0-2.1,0.1-3.1,0.1c-0.1,0-0.1,0-0.2,0c-1.4,0.1-2.7,0.2-4.1,0.3c0,0,0,0,0,0
		c-1.4,0.1-2.8,0.3-4.2,0.4c0,0,0,0,0,0c-0.1,0-0.2,0-0.3,0c-0.1,0-0.1,0-0.2,0c-0.8,0.1-1.6,0.2-2.5,0.3c-1,0.3-1.9,0.9-2.7,1.6
		c-1.4,1.4-2.1,3.3-2.1,5.1c-0.5,6.9-3.4,13.6-8.6,18.8c-11,10.9-28.4,11.3-40,1.3l0,0c-2.4-2.3-5.9-2.6-8.7-1
		c-2.1,1.6-4.2,3.3-6.3,5.1c-0.3,0.2-0.5,0.5-0.8,0.7c-0.9,0.8-1.8,1.6-2.7,2.4c-0.1,0.1-0.1,0.1-0.2,0.2c-0.2,0.2-0.3,0.3-0.5,0.5
		c-2.8,2.6-5.5,5.4-8.1,8.3c-0.2,0.2-0.3,0.4-0.5,0.6c-0.1,0.1-0.2,0.2-0.3,0.3c-0.7,0.8-1.5,1.7-2.2,2.5c-0.3,0.4-0.6,0.7-0.9,1.1
		c-0.7,0.9-1.4,1.8-2.2,2.7c-0.6,0.7-1.1,1.5-1.7,2.2c-0.1,0.1-0.2,0.3-0.3,0.4c-0.4,0.9-0.7,1.9-0.7,3c0,2,0.8,3.8,2.2,5.1
		c4.5,5.2,7.3,11.9,7.3,19.4c0,15.5-12,28.2-27.2,29.4l0,0c-3.2,0.1-5.8,2.2-6.7,5.1c-0.1,0.8-0.2,1.7-0.3,2.5
		c-0.1,0.5-0.1,1-0.2,1.5c0,0.2,0,0.5-0.1,0.7c-0.1,1-0.2,2-0.3,3.1c0,0.4-0.1,0.8-0.1,1.2c-0.1,0.9-0.1,1.7-0.1,2.6
		c0,0.5,0,0.9-0.1,1.4c0,0.8,0,1.6-0.1,2.4c0,0.5,0,1,0,1.5c0,0.7,0,1.5,0,2.2c0,1.4,0,2.8,0.1,4.1c0,0.2,0,0.3,0,0.5
		c0,0.2,0,0.3,0,0.5c0,0.8,0.1,1.7,0.1,2.5c0,0.2,0,0.4,0,0.6c0,0.2,0,0.3,0,0.5c0.1,0.9,0.1,1.8,0.2,2.6c0,0.2,0,0.4,0.1,0.6
		c0,0.1,0,0.1,0,0.2c0.1,1,0.2,2,0.3,2.9c0,0.1,0,0.1,0,0.2c0.1,0.8,0.2,1.6,0.3,2.4c0.3,0.9,0.9,1.8,1.6,2.6
		c1.4,1.4,3.3,2.1,5.1,2.1c6.5,0.5,12.8,3.1,17.8,7.8l19.5-19.5c-0.5-3.9-0.8-7.9-0.8-11.9c0-49.4,40-89.4,89.4-89.4
		c49.4,0,89.4,40,89.4,89.4s-40,89.4-89.4,89.4c-3.6,0-7.2-0.2-10.8-0.7c-4.4,4.4-12.3,12.3-20.3,20.3c3.8,4.6,6.3,10.4,6.7,16.8
		l0,0c0,3.3,2.2,6,5.2,6.8c1.5,0.2,3,0.4,4.5,0.6c0.2,0,0.4,0.1,0.6,0.1c1,0.1,1.9,0.2,2.9,0.3c0,0,0.1,0,0.1,0
		c0.7,0.1,1.5,0.1,2.2,0.2c1.5,0.1,2.9,0.2,4.4,0.2c0.6,0,1.2,0,1.8,0c0.5,0,1.1,0,1.6,0c0.6,0,1.2,0,1.8,0c0.2,0,0.4,0,0.7,0
		c0.8,0,1.6,0,2.4,0c0.8,0,1.6-0.1,2.4-0.1c0.1,0,0.2,0,0.4,0c0.9,0,1.9-0.1,2.8-0.2c1.3-0.1,2.6-0.2,3.9-0.3
		c1.9-0.2,3.7-0.4,5.6-0.7c0.2-0.1,0.4-0.2,0.6-0.2c0,0,0.1,0,0.1,0c0,0,0.1,0,0.1-0.1c0.6-0.3,1.2-0.7,1.8-1.3
		c1.4-1.4,2.1-3.3,2.1-5.1c0.5-6.9,3.4-13.6,8.7-18.8c5.5-5.4,12.6-8.3,19.8-8.5c7.2-0.2,14.4,2.2,20.2,7.2l0,0
		c1.4,1.4,3.3,2.1,5.2,2c1.1,0,2.2-0.3,3.2-0.9c0.2-0.2,0.4-0.3,0.6-0.5c0.7-0.5,1.4-1.1,2.1-1.6c0.4-0.3,0.8-0.6,1.2-1
		c0.6-0.5,1.3-1,1.9-1.6c0.5-0.4,0.9-0.8,1.4-1.2c0.5-0.5,1.1-0.9,1.6-1.4c0.5-0.5,1.1-1,1.6-1.5c0.4-0.4,0.9-0.8,1.3-1.2
		c0.6-0.6,1.2-1.2,1.9-1.8c0.3-0.3,0.6-0.6,0.9-0.9c0,0,0.1-0.1,0.1-0.1c0.7-0.7,1.3-1.3,2-2c1.1-1.2,2.3-2.4,3.4-3.7
		c0,0,0,0,0.1-0.1c0.3-0.4,0.6-0.7,0.9-1.1c0.8-1,1.7-2,2.5-3c0.5-0.7,1.1-1.4,1.6-2c0.4-0.5,0.7-0.9,1.1-1.4c0.5-0.9,0.7-2,0.8-3.1
		c0-2-0.8-3.8-2.1-5.1c-4.5-5.2-7.2-12-7.1-19.5c0-4.1,1-8,2.5-11.5c3.9-10.5,13.6-18.1,25.3-19l0,0c3.2-0.1,5.9-2.2,6.7-5.2
		c0-0.2,0-0.4,0.1-0.6c0.1-1.2,0.3-2.3,0.4-3.5c0-0.2,0-0.4,0.1-0.6c0.1-1.1,0.2-2.2,0.3-3.3c0-0.3,0-0.6,0.1-0.8c0-0.3,0-0.5,0-0.8
		c0.1-1.2,0.1-2.4,0.2-3.6C278,145.9,278,143.3,278,140.7z"/>
</g>
</svg>
