<?xml version="1.0" encoding="utf-8"?>
<!-- Generator: Adobe Illustrator 25.0.0, SVG Export Plug-In . SVG Version: 6.00 Build 0)  -->
<svg version="1.1" xmlns="http://www.w3.org/2000/svg" xmlns:xlink="http://www.w3.org/1999/xlink" x="0px" y="0px"
	 viewBox="0 0 288 288" style="enable-background:new 0 0 288 288;" xml:space="preserve">
<style type="text/css">
        .st0{stroke:#000000;stroke-miterlimit:10;}
    * {
        fill: white;
        stroke: white !important;
    }
</style>
<g id="Layer_2">
	<path d="M188.6,224.2h-52.7c-3.1,0-5.7-2.6-5.7-5.7V216c0-3.1,2.6-5.7,5.7-5.7h52.7c3.1,0,5.7,2.6,5.7,5.7v2.6
		C194.3,221.7,191.7,224.2,188.6,224.2z"/>
	<path d="M169.2,190.9v52.7c0,3.1-2.6,5.7-5.7,5.7H161c-3.1,0-5.7-2.6-5.7-5.7v-52.7c0-3.1,2.6-5.7,5.7-5.7h2.6
		C166.7,185.3,169.2,187.8,169.2,190.9z"/>
	<path class="st0" d="M162.4,158.6c-32.2,0-58.4,26.2-58.4,58.4c0,32.2,26.2,58.4,58.4,58.4c32.2,0,58.4-26.2,58.4-58.4
		C220.8,184.8,194.6,158.6,162.4,158.6z M162.4,266.8c-27.5,0-49.9-22.3-49.9-49.9c0-27.6,22.3-49.9,49.9-49.9
		c27.6,0,49.9,22.3,49.9,49.9C212.3,244.5,190,266.8,162.4,266.8z"/>
</g>
<g id="Layer_3">
	<g>
		<path d="M147.2,151.9L95.3,100l-74.5,74.5v0C8.9,186.3,1.5,202.7,1.5,220.8c0,36,29.2,65.2,65.2,65.2c18.1,0,34.5-7.4,46.3-19.3v0
			l2.3-2.3c-12.2-12.1-19.8-28.9-19.8-47.4C95.5,185.3,117.6,158.8,147.2,151.9z"/>
		<g>
			<path d="M221.3,9c31.5,0,57.2,25.7,57.2,57.2c0,15.4-6,29.8-16.9,40.6l-2.4,2.4v0l-49.6,49.6c-13.3-10.8-29.8-16.7-47.1-16.7
				c-0.6,0-1.1,0-1.7,0L112.6,94l42-42l23.6-23.6h0l2.3-2.4C191.5,15.1,205.9,9,221.3,9 M221.3,1c-18.1,0-34.5,7.4-46.3,19.3h0
				L149,46.3L101.3,94l56.3,56.3c1.6-0.1,3.2-0.2,4.8-0.2c18.5,0,35.3,7.6,47.4,19.8l57.3-57.3v0c11.9-11.8,19.3-28.2,19.3-46.3
				C286.5,30.2,257.3,1,221.3,1L221.3,1z"/>
		</g>
	</g>
</g>
</svg>
