<?xml version="1.0" encoding="utf-8"?>
<!-- Generator: Adobe Illustrator 25.0.0, SVG Export Plug-In . SVG Version: 6.00 Build 0)  -->
<svg version="1.1" xmlns="http://www.w3.org/2000/svg" xmlns:xlink="http://www.w3.org/1999/xlink" x="0px" y="0px"
	 viewBox="0 0 288 288" style="enable-background:new 0 0 288 288;" xml:space="preserve">
<style type="text/css">
    * {
        fill: white;
    }
</style>
<g id="Layer_2">
	<path d="M200.1,266.8c0.3,0.1,0.6,0.1,1,0.1c1.4,0,2.6-0.4,3.6-1.2l71.2-42.5c2-1.2,3-3.3,2.9-5.4l-1.3-174.4
		c0-2.5-1.5-4.6-3.7-5.5c-1.3-0.8-2.8-1.1-4.3-0.8L109.1,16c-1.1-0.1-2.2,0-3.2,0.5l0,0L13.2,57.2c-2.3,1-3.7,3.3-3.6,5.7h0v177.4
		c0,3.2,2.5,5.9,5.7,6L200.1,266.8z M264.7,214.7L209.3,246V88l54.3-32.6L264.7,214.7z M253.1,47l-50.8,31.3l-75.6-9.6l56-30.8
		L253.1,47z M109.2,28.1l18.6,2.4L73.6,61.8l-33.9-4.3L109.2,28.1z M25.9,69.7L64,75.1l-5.7,78.8L86,138.3l27.7,18.8l2.6-75.3
		l74.5,7.9v158L25.9,230.6V69.7z"/>
</g>
<g id="Layer_3">
</g>
</svg>
