<?xml version="1.0" encoding="utf-8"?>
<!-- Generator: Adobe Illustrator 25.0.0, SVG Export Plug-In . SVG Version: 6.00 Build 0)  -->
<svg version="1.1" id="Capa_1" xmlns="http://www.w3.org/2000/svg" xmlns:xlink="http://www.w3.org/1999/xlink" x="0px" y="0px"
	 viewBox="0 0 80.8 80.8" style="enable-background:new 0 0 80.8 80.8;" xml:space="preserve">
<path fill="rgba(255, 255, 255, 0.8)" d="M40.4,24.8c-8.6,0-15.6,7-15.6,15.6c0,8.6,7,15.6,15.6,15.6C49,56,56,49,56,40.4C56,31.8,49,24.8,40.4,24.8z M40.4,52.9
	c-6.9,0-12.5-5.6-12.5-12.5c0-6.9,5.6-12.5,12.5-12.5c6.9,0,12.5,5.6,12.5,12.5C52.9,47.3,47.3,52.9,40.4,52.9z"/>
<path fill="rgba(255, 255, 255, 0.8)" d="M78.4,38.6c-5.6-6.2-20.5-20.7-38-20.7c-17.5,0-32.4,14.5-38,20.7l-1.7,1.8l1.7,1.8C8,48.5,22.9,63,40.4,63
	c17.5,0,32.4-14.5,38-20.7l1.7-1.8L78.4,38.6z M40.4,60.2c-16.6,0-31.1-14.4-36-19.8c4.9-5.4,19.4-19.8,36-19.8
	c16.6,0,31.1,14.4,36,19.8C71.5,45.8,57,60.2,40.4,60.2z"/>
</svg>
